<svg width="512" height="586" viewBox="0 0 512 586" fill="none" xmlns="http://www.w3.org/2000/svg">
<path d="M173.585 56.6117C103.748 87.9471 72.4475 169.894 103.612 239.808L138.449 317.706C140.855 323.083 147.164 325.493 152.542 323.088L191.491 305.669C196.869 303.264 199.279 296.955 196.874 291.577L162.036 213.679C145.2 176.035 162.069 131.87 199.713 115.035C237.357 98.1999 281.522 115.068 298.357 152.713L333.195 230.611C335.6 235.988 341.91 238.398 347.288 235.993L386.236 218.575C391.614 216.17 394.024 209.86 391.619 204.482L356.781 126.585C325.445 56.7475 243.497 25.4479 173.585 56.6117Z" fill="#455A64"/>
<path d="M128.333 287.333H384.333C413.788 287.333 437.666 311.211 437.666 340.666V532.666C437.666 562.122 413.788 586 384.333 586H128.333C98.878 586 75 562.122 75 532.667V340.667C75 311.211 98.878 287.333 128.333 287.333Z" fill="#FFC107"/>
<path d="M309.666 404.667C309.79 375.212 286.013 351.233 256.558 351.109C227.103 350.985 203.124 374.762 203 404.217C202.914 424.577 214.427 443.209 232.674 452.24L224.439 509.84C223.614 515.673 227.674 521.07 233.507 521.895C234.001 521.965 234.5 522 234.999 522H277.666C283.557 522.06 288.381 517.333 288.44 511.442C288.445 510.899 288.41 510.356 288.332 509.819L280.097 452.219C298.121 443.199 309.549 424.82 309.666 404.667Z" fill="#455A64"/>
<rect x="440.361" y="257" width="80" height="25" rx="12.5" transform="rotate(27.0283 440.361 257)" fill="#455A64"/>
<rect x="429" y="218.707" width="80" height="25" rx="12.5" transform="rotate(-27.312 429 218.707)" fill="#455A64"/>
</svg>
