<svg width="512" height="512" viewBox="0 0 512 512" fill="none" xmlns="http://www.w3.org/2000/svg">
<path d="M256 0C179.456 0.094 117.427 62.122 117.333 138.667V224C117.333 229.891 122.109 234.667 128 234.667H170.667C176.558 234.667 181.334 229.891 181.334 224V138.667C181.333 97.429 214.763 64 256 64C297.237 64 330.667 97.429 330.667 138.667V224C330.667 229.891 335.443 234.667 341.334 234.667H384C389.891 234.667 394.667 229.891 394.667 224V138.667C394.573 62.122 332.544 0.094 256 0Z" fill="#455A64"/>
<path d="M128 213.333H384C413.455 213.333 437.333 237.211 437.333 266.666V458.666C437.333 488.122 413.455 512 384 512H128C98.545 512 74.667 488.122 74.667 458.667V266.667C74.667 237.211 98.545 213.333 128 213.333Z" fill="#FFC107"/>
<path d="M309.333 330.667C309.457 301.212 285.68 277.233 256.225 277.109C226.77 276.985 202.791 300.762 202.667 330.217C202.581 350.577 214.094 369.209 232.341 378.24L224.106 435.84C223.281 441.673 227.341 447.07 233.174 447.895C233.668 447.965 234.167 448 234.666 448H277.333C283.224 448.06 288.048 443.333 288.107 437.442C288.112 436.899 288.077 436.356 287.999 435.819L279.764 378.219C297.788 369.199 309.216 350.82 309.333 330.667Z" fill="#455A64"/>
</svg>
